<svg id="Layer_1" data-name="Layer 1" xmlns="http://www.w3.org/2000/svg" viewBox="0 0 312.14 92.2"><defs><style>.cls-1{fill:#82515e;}.cls-2{fill:#af6182;}</style></defs><title>ruffle</title><g id="a"><path class="cls-1" d="M37.85,61.25a7.16,7.16,0,0,0-.8,0c-.33-.17-.63-.33-.9-.5a2,2,0,0,1-.55-.3l-.6-.6-4.25-6.45L29.25,64.7H32.7a8.14,8.14,0,0,0,1.5-.35,6.78,6.78,0,0,0,1.65-.75,7.28,7.28,0,0,0,1-.8,9.08,9.08,0,0,0,1-1,3.22,3.22,0,0,0,.75-1.2.48.48,0,0,1-.15.1,1,1,0,0,1-.25.25l-.1.2-.25.1m58.3,0a1.75,1.75,0,0,1-1.45-.7c-.2-.2-.38-.4-.55-.6l-.05-.05v0l-4.25-6.4L88.35,64.7H91.8a8.14,8.14,0,0,0,1.5-.35,6,6,0,0,0,1.6-.75,10.77,10.77,0,0,0,1.4-1.1,3.06,3.06,0,0,0,.75-.85,10.92,10.92,0,0,0,.65-1l-.45.55a3,3,0,0,1-1.1.1m19.7,3.25h3.45a8.14,8.14,0,0,0,1.5-.35,1.49,1.49,0,0,0,.45-.15l.65-.3.5-.3a5.05,5.05,0,0,0,.5-.35q.45-.34.9-.75a3.06,3.06,0,0,0,.75-.85l.1-.1a3.63,3.63,0,0,1,.2-.35,6.21,6.21,0,0,0,.35-.6l-.3.4-.15.15a3,3,0,0,1-1.1.1,1.4,1.4,0,0,1-.4,0,2.22,2.22,0,0,1-.8-.4,1,1,0,0,1-.25-.25c-.2-.2-.38-.4-.55-.6l-.05,0v-.05l-4.25-6.4-1.5,11.25m52.6.2a54.22,54.22,0,0,1-5.7-.75,26,26,0,0,1-8.9-3.1c-.5-.33-1-.67-1.4-1a9,9,0,0,1-3.5-6.4l-1.5,11.25h21m33.4-5.65a9,9,0,0,1-2.6-5.6l-1.5,11.25h21q-11.25-.95-16-4.85c-.33-.27-.63-.53-.9-.8M257,61.55c-1.7-.17-2.78-.77-3.25-1.8l-4.2-6.3-1.5,11.25h3.45a8.77,8.77,0,0,0,1.2-.3l.75-.2.65-.3a10.2,10.2,0,0,0,1.35-.8,6.71,6.71,0,0,0,1.3-1.25,2.21,2.21,0,0,1,.25-.3m23.95-8-1.5,11.2h21a4,4,0,0,0-.6,0q-10.8-1-15.4-4.8A9,9,0,0,1,281,53.5Z" transform="translate(-8 -8)"/><path class="cls-2" d="M40.65,47.25H51.8l-2,14.45h16.5l2.3-16.25h0l.8-5.7a5.11,5.11,0,0,0-1-4.2c-.23-.27-.48-.53-.75-.8s-.35-.33-.55-.5a2.25,2.25,0,0,0-.45-.35,7.54,7.54,0,0,0-4.5-1.4H34.3a7.6,7.6,0,0,0-2.6.45,9.85,9.85,0,0,0-3.15,1.8A8.53,8.53,0,0,0,25.3,40L23.65,52h.05v.3l5.85,1.15h-9.5a8.62,8.62,0,0,0-1,.15c-.33.1-.67.22-1,.35a7.53,7.53,0,0,0-.95.45,6.27,6.27,0,0,0-1,.7,6.36,6.36,0,0,0-.85.8,9.08,9.08,0,0,0-.65.85,5.78,5.78,0,0,0-.5.9c-.1.3-.2.62-.3,1L8,100.2H24.25l5-35.5,1.5-11.25L35,59.9l.6.6a2,2,0,0,0,.55.3c.27.17.57.33.9.5a7.16,7.16,0,0,1,.8,0l.25-.1.1-.2a1,1,0,0,0,.25-.25.48.48,0,0,0,.15-.1l.3-1.05,1.75-12.3m86.8-2h0l.15-1.25h0l1.65-11.7H112.9l-2.65,19.5h0V52l0,.1h0l5.8,1.15h-9.45a8.62,8.62,0,0,0-1,.15c-.33.1-.67.22-1,.35a1.05,1.05,0,0,0-.3.15,3.07,3.07,0,0,0-.55.25.16.16,0,0,0-.1.05c-.33.2-.67.42-1,.65a6.6,6.6,0,0,0-.7.7,10,10,0,0,0-1,1.45,6.38,6.38,0,0,0-.55,1.4c-.1.47-.18.93-.25,1.4v.05c-.1.7-.22,1.38-.35,2l-1.2,8.75v.1l-2.1,14.7H85.35L87.6,69.9h.05l.7-5.2,1.5-11.25,4.25,6.4v0l.05.05c.17.2.35.4.55.6a1.75,1.75,0,0,0,1.45.7,3,3,0,0,0,1.1-.1l.45-.55.3-1.05,1.3-9h0l.7-5h0l.15-1.25h0l1.65-11.7H85.4L82.75,52h0l0,.3,5.85,1.15H79.15a8.62,8.62,0,0,0-1,.15c-.33.1-.67.22-1,.35a7.53,7.53,0,0,0-1,.45c-.33.2-.67.42-1,.65s-.53.55-.8.85l-.55.65a.65.65,0,0,1-.15.2,5.06,5.06,0,0,0-.4.9,5,5,0,0,0-.3,1c-.07.43-.13.85-.2,1.25-.13.77-.27,1.52-.4,2.25L68.1,92.7A6.75,6.75,0,0,0,69.85,98a6.43,6.43,0,0,0,4,2.15,7.28,7.28,0,0,0,1.25.1h27.35a9.26,9.26,0,0,0,6-2.25,3.37,3.37,0,0,1,.7-.55l.3-.2a7.31,7.31,0,0,0,2.25-4.5l1.65-11.6a.16.16,0,0,1,.1,0L115.1,69.7h.05l.7-5.2,1.5-11.25,4.25,6.4v.05l.05,0c.17.2.35.4.55.6a1,1,0,0,0,.25.25,2.22,2.22,0,0,0,.8.4,1.4,1.4,0,0,0,.4,0,3,3,0,0,0,1.1-.1l.15-.15.3-.4.3-1,1.3-9.05h0l.7-5m61.8-35A7.48,7.48,0,0,0,183.75,8H156a9,9,0,0,0-5.75,2.25,8,8,0,0,0-2.05,2.1,5.74,5.74,0,0,0-.7,1.2c-.13.33-.25.67-.35,1a7,7,0,0,0-.15.95l-4.15,30h0l-.7,5.2h0l-.2,1.35h.05l-.05.3,5.85,1.15h-9.45a6.29,6.29,0,0,0-3.95,1.6,5.85,5.85,0,0,0-2.25,3.55l-.5,3.5h-.05l-5.3,38.1h16.25l5-35.5L149,53.45a9,9,0,0,0,3.5,6.4c.43.33.9.67,1.4,1a26,26,0,0,0,8.9,3.1,54.22,54.22,0,0,0,5.7.75l1.75-11.25H158l.4-3h-.05l.7-5H159c.07-.6.17-1.23.3-1.9.07-.5.13-1,.2-1.6q.85-5.89,2.15-14.9a.62.62,0,0,1,0-.25l.1-.9q.19-1.54.45-3.15H173.5l-3.1,20.8h16.5l4.1-28a7,7,0,0,0-.4-3.15,8.9,8.9,0,0,0-1.35-2.1m50.3,0A7.48,7.48,0,0,0,234.05,8H206.3a8.26,8.26,0,0,0-4.45,1.35,7.25,7.25,0,0,0-1.3.9,8,8,0,0,0-2.05,2.1,5.74,5.74,0,0,0-.7,1.2,6.22,6.22,0,0,0-.5,1.95l-4.15,30h-.05l-.7,5.2h-.05l-.2,1.35h0l0,.3L198,53.45h-9.45a6.29,6.29,0,0,0-4,1.6,5.85,5.85,0,0,0-2.25,3.55l-.5,3.5h0l-1.2,8.75V71l-4.1,29.25h16.25l5-35.5,1.5-11.25a9,9,0,0,0,2.6,5.6c.27.27.57.53.9.8q4.75,3.9,16,4.85l1.75-11.25H208.3l.4-3h0l.7-5h0c.1-.6.2-1.23.3-1.9.07-.5.15-1,.25-1.6.1-.83.22-1.72.35-2.65v0q.95-6.7,2.35-16.5H223.8l-3.1,20.8h16.5l4.1-28a7,7,0,0,0-.4-3.15,8.9,8.9,0,0,0-1.35-2.1M259.5,45.5v0L264.85,8H248.6l-6.15,44.3,5.85,1.15h-9.45a8.62,8.62,0,0,0-1,.15c-.33.1-.67.22-1,.35a7.53,7.53,0,0,0-.95.45c-.33.2-.67.42-1,.65s-.53.55-.8.85-.47.55-.7.85a9.44,9.44,0,0,0-.45.9c-.1.3-.2.62-.3,1l-5.85,41.6h16.25l5-35.5,1.5-11.25,4.2,6.3c.47,1,1.55,1.63,3.25,1.8l.05-.1a2.73,2.73,0,0,0,.35-.85l.3-1.05,1.8-14m25.6-15.75a8.13,8.13,0,0,0-1.3.1A9.4,9.4,0,0,0,279.1,32a8.53,8.53,0,0,0-3.25,5.25l-2,14.7v0l0,.3,5.85,1.15h-9.45a6,6,0,0,0-3.6,1.35,1.48,1.48,0,0,0-.35.25,5.85,5.85,0,0,0-2.25,3.55L259.2,92.7A6.75,6.75,0,0,0,261,98a6.64,6.64,0,0,0,3,2,8.16,8.16,0,0,0,2.25.3H294A9.26,9.26,0,0,0,300,98a7.6,7.6,0,0,0,3.25-5L306,74.45h-16.5l-1.75,11H276.45l2.1-14.75h.05l.85-6L281,53.5a9,9,0,0,0,3.5,6.35q4.6,3.8,15.4,4.8a4,4,0,0,1,.6,0H316.2L319,45.45h-.05l1.15-8.2A5.74,5.74,0,0,0,318.3,32a6.78,6.78,0,0,0-3-1.75,5,5,0,0,0-2.25-.5H285.1m5.95,15.7H291l.15-1h11.45l-1.25,9H290l.4-3h0Z" transform="translate(-8 -8)"/></g></svg>